<svg id="Layer" xmlns="http://www.w3.org/2000/svg" viewBox="0 0 335.99 235.19"><defs><style>.cls-1{fill:#d5d6d5;}.cls-2,.cls-8{fill:#6dc9ca;}.cls-3,.cls-9{fill:#e9552a;}.cls-4,.cls-5{fill:#f4af43;}.cls-5,.cls-8,.cls-9{fill-rule:evenodd;}.cls-6{fill:none;}.cls-7{font-size:6.93px;fill:#fff;font-family:OpenSans-Bold, OpenSans Bold;font-weight:700;}</style></defs><polygon class="cls-1" points="284.27 201.71 284.27 201.39 284 201.55 284.27 201.71"/><rect class="cls-2" x="141.41" y="94.56" width="12.07" height="107.29"/><rect class="cls-3" x="99.18" y="171.59" width="12.07" height="30.27"/><rect class="cls-4" x="120.34" y="133.75" width="12.07" height="68.11"/><rect class="cls-2" x="77.35" y="64.97" width="12.07" height="136.89"/><rect class="cls-4" x="56.47" y="117.85" width="12.07" height="84"/><rect class="cls-2" x="270.28" y="111.04" width="12.07" height="90.81"/><rect class="cls-3" x="226.82" y="93.39" width="12.07" height="108.47"/><rect class="cls-4" x="248.34" y="146.17" width="12.07" height="55.69"/><rect class="cls-2" x="205.81" y="73.22" width="12.07" height="128.64"/><rect class="cls-3" x="163.6" y="117.78" width="12.07" height="84.07"/><rect class="cls-4" x="184.3" y="103.48" width="12.07" height="98.38"/><polygon class="cls-1" points="282.56 200.68 280.06 200.68 275.84 200.68 168.93 200.68 164.72 200.68 160.5 200.68 156.29 200.68 152.08 200.68 147.87 200.68 143.65 200.68 139.44 200.68 135.23 200.68 131.02 200.68 126.81 200.68 122.59 200.68 118.38 200.68 114.17 200.68 109.95 200.68 105.74 200.68 101.53 200.68 97.32 200.68 93.1 200.68 88.89 200.68 84.68 200.68 80.47 200.68 76.25 200.68 72.04 200.68 67.83 200.68 63.62 200.68 59.4 200.68 55.19 200.68 50.98 200.68 47.7 200.68 47.7 201.55 46.77 200.68 47.7 200.68 47.7 197.66 47.7 178.17 47.7 174.28 47.7 170.38 47.7 166.49 47.7 162.6 47.7 158.71 47.7 154.82 47.7 150.93 47.7 147.04 47.7 143.15 47.7 139.26 47.7 135.37 47.7 131.47 47.7 127.58 47.7 123.69 47.7 119.8 47.7 115.91 47.7 112.02 47.7 108.13 47.7 104.24 47.7 100.35 47.7 96.45 47.7 92.56 47.7 88.67 47.7 84.78 47.7 80.89 47.7 77 47.7 73.11 47.7 69.22 47.7 65.33 47.7 63.02 46.77 61.68 45.83 63.02 45.83 65.33 45.83 69.22 45.83 73.11 45.83 77 45.83 80.89 45.83 84.78 45.83 88.67 45.83 92.56 45.83 96.45 45.83 100.35 45.83 104.24 45.83 108.13 45.83 112.02 45.83 115.91 45.83 119.8 45.83 123.69 45.83 127.58 45.83 131.47 45.83 135.37 45.83 139.26 45.83 143.15 45.83 147.04 45.83 150.93 45.83 154.82 45.83 158.71 45.83 162.6 45.83 166.49 45.83 170.38 45.83 174.28 45.83 178.17 45.83 197.66 45.83 201.55 45.83 202.42 46.77 202.42 50.98 202.42 55.19 202.42 59.4 202.42 63.62 202.42 67.83 202.42 72.04 202.42 76.25 202.42 80.47 202.42 84.68 202.42 88.89 202.42 93.1 202.42 97.32 202.42 101.53 202.42 105.74 202.42 109.95 202.42 114.17 202.42 118.38 202.42 122.59 202.42 126.81 202.42 131.02 202.42 135.23 202.42 139.44 202.42 143.65 202.42 147.87 202.42 152.08 202.42 156.29 202.42 160.5 202.42 164.72 202.42 168.93 202.42 275.84 202.42 280.06 202.42 282.56 202.42 284 201.55 282.56 200.68"/><polygon class="cls-1" points="282.35 206.71 289.74 202.28 290.96 201.55 289.74 200.82 282.35 196.38 282.35 206.71"/><polygon class="cls-1" points="52.35 65.47 47.55 58.64 46.77 57.52 45.98 58.64 41.19 65.47 52.35 65.47"/><polygon class="cls-1" points="46.59 61.44 46.77 61.68 46.94 61.44 46.59 61.44"/><polygon class="cls-5" points="54.75 98.16 70.67 98.15 70.67 103.3 70.67 112.11 64.44 112.11 62.71 115.92 60.97 112.11 54.75 112.11 54.75 98.16"/><rect class="cls-6" x="56.05" y="102.57" width="13.2" height="7.12"/><text class="cls-7" transform="translate(58.24 107.84) scale(1.08 1)">7</text><text class="cls-7" transform="translate(62.78 107.84) scale(1.08 1)">0</text><polygon class="cls-5" points="246.42 128.78 262.33 128.77 262.33 133.92 262.33 142.73 256.11 142.73 254.38 146.54 252.64 142.73 246.42 142.73 246.42 128.78"/><rect class="cls-6" x="247.72" y="133.19" width="13.2" height="7.12"/><text class="cls-7" transform="translate(249.87 138.46) scale(1.08 1)">5</text><text class="cls-7" transform="translate(254.48 138.46) scale(1.08 1)">0</text><polygon class="cls-8" points="268.89 93.54 284.81 93.53 284.81 98.68 284.81 107.48 278.59 107.48 276.85 111.29 275.12 107.48 268.89 107.48 268.89 93.54"/><rect class="cls-6" x="270.19" y="97.95" width="13.2" height="7.12"/><text class="cls-7" transform="translate(272.4 103.22) scale(1.08 1)">7</text><text class="cls-7" transform="translate(276.91 103.22) scale(1.08 1)">5</text><polygon class="cls-5" points="119.06 114.92 134.97 114.91 134.97 120.06 134.97 128.86 128.75 128.86 127.01 132.67 125.28 128.86 119.06 128.86 119.06 114.92"/><rect class="cls-6" x="120.35" y="119.33" width="13.2" height="7.12"/><text class="cls-7" transform="translate(122.49 124.6) scale(1.08 1)">6</text><text class="cls-7" transform="translate(127.14 124.6) scale(1.08 1)">0</text><polygon class="cls-8" points="139.66 76.2 155.57 76.19 155.57 81.35 155.57 90.15 149.35 90.15 147.62 93.96 145.88 90.15 139.66 90.15 139.66 76.2"/><rect class="cls-6" x="140.96" y="80.62" width="13.2" height="7.12"/><text class="cls-7" transform="translate(143.11 85.89) scale(1.08 1)">8</text><text class="cls-7" transform="translate(147.72 85.89) scale(1.08 1)">5</text><polygon class="cls-5" points="182.65 85.45 198.56 85.44 198.56 90.59 198.56 99.4 192.34 99.4 190.6 103.2 188.87 99.4 182.65 99.4 182.65 85.45"/><rect class="cls-6" x="183.94" y="89.86" width="13.2" height="7.12"/><text class="cls-7" transform="translate(186.08 95.13) scale(1.08 1)">8</text><text class="cls-7" transform="translate(190.72 95.13) scale(1.08 1)">0</text><polygon class="cls-9" points="225.19 76.2 241.11 76.19 241.11 81.35 241.11 90.15 234.88 90.15 233.15 93.96 231.41 90.15 225.19 90.15 225.19 76.2"/><rect class="cls-6" x="226.49" y="80.62" width="13.2" height="7.12"/><text class="cls-7" transform="translate(228.64 85.89) scale(1.08 1)">8</text><text class="cls-7" transform="translate(233.26 85.89) scale(1.08 1)">5</text><polygon class="cls-9" points="162.54 97.87 178.45 97.86 178.45 103.02 178.45 111.82 172.23 111.82 170.5 115.63 168.76 111.82 162.54 111.82 162.54 97.87"/><rect class="cls-6" x="163.84" y="102.28" width="13.2" height="7.12"/><text class="cls-7" transform="translate(166.03 107.55) scale(1.08 1)">7</text><text class="cls-7" transform="translate(170.57 107.55) scale(1.08 1)">0</text><polygon class="cls-8" points="75.98 46.16 91.89 46.15 91.89 51.3 91.89 60.11 85.67 60.11 83.93 63.92 82.2 60.11 75.98 60.11 75.98 46.16"/><rect class="cls-6" x="76.74" y="50.57" width="14.45" height="7.12"/><text class="cls-7" transform="translate(77.3 55.84) scale(1.08 1)">1</text><text class="cls-7" transform="translate(81.67 55.84) scale(1.08 1)">0</text><text class="cls-7" transform="translate(86.36 55.84) scale(1.08 1)">0</text><polygon class="cls-8" points="203.96 55.4 219.88 55.39 219.88 60.55 219.88 69.35 213.66 69.35 211.92 73.16 210.19 69.35 203.96 69.35 203.96 55.4"/><rect class="cls-6" x="205.26" y="59.82" width="13.2" height="7.12"/><text class="cls-7" transform="translate(207.42 65.08) scale(1.08 1)">9</text><text class="cls-7" transform="translate(212.02 65.08) scale(1.08 1)">5</text><polygon class="cls-9" points="97.2 152.47 113.12 152.46 113.12 157.61 113.12 166.42 106.89 166.42 105.16 170.23 103.42 166.42 97.2 166.42 97.2 152.47"/><rect class="cls-6" x="98.5" y="156.88" width="13.2" height="7.12"/><text class="cls-7" transform="translate(100.65 162.15) scale(1.08 1)">3</text><text class="cls-7" transform="translate(105.28 162.15) scale(1.08 1)">0</text></svg>